<svg xmlns="http://www.w3.org/2000/svg" xmlns:xlink="http://www.w3.org/1999/xlink" width="500" zoomAndPan="magnify" viewBox="0 0 375 374.999991" height="500" preserveAspectRatio="xMidYMid meet" version="1.0"><defs><g/><clipPath id="19738359e7"><path d="M 52.09375 168.355469 L 90 168.355469 L 90 206.605469 L 52.09375 206.605469 Z M 52.09375 168.355469 " clip-rule="nonzero"/></clipPath></defs><rect x="-37.5" width="450" fill="#ffffff" y="-37.499999" height="449.999989" fill-opacity="1"/><rect x="-37.5" width="450" fill="#ffffff" y="-37.499999" height="449.999989" fill-opacity="1"/><rect x="-37.5" width="450" fill="#000000" y="-37.499999" height="449.999989" fill-opacity="1"/><g clip-path="url(#19738359e7)"><path fill="#ffffff" d="M 59.726562 199.722656 L 60.160156 200.152344 L 60.203125 200.195312 C 61.550781 201.589844 61.535156 203.839844 60.160156 205.214844 C 58.785156 206.59375 56.539062 206.605469 55.144531 205.257812 L 55.097656 205.214844 L 54.667969 204.785156 L 53.488281 203.601562 C 52.097656 202.210938 52.097656 199.933594 53.488281 198.539062 C 54.878906 197.144531 57.160156 197.144531 58.550781 198.539062 Z M 83.601562 180.128906 L 84.019531 179.707031 L 88.914062 174.8125 C 90.304688 173.421875 90.304688 171.144531 88.914062 169.746094 C 87.519531 168.355469 85.242188 168.355469 83.851562 169.746094 L 79.441406 174.164062 L 78.960938 174.644531 L 78.539062 175.0625 L 76.007812 177.59375 C 74.621094 178.988281 74.621094 181.265625 76.007812 182.660156 L 78.539062 185.191406 L 78.992188 185.640625 L 83.886719 190.535156 C 85.277344 191.925781 87.550781 191.925781 88.949219 190.535156 C 90.339844 189.144531 90.339844 186.863281 88.949219 185.472656 L 84.054688 180.574219 Z M 53.691406 169.78125 L 53.691406 169.777344 C 55.082031 168.386719 57.359375 168.386719 58.75 169.777344 L 88.878906 199.929688 C 90.277344 201.320312 90.277344 203.601562 88.878906 204.992188 C 87.488281 206.386719 85.214844 206.386719 83.820312 204.992188 L 53.691406 174.839844 C 52.300781 173.449219 52.300781 171.171875 53.691406 169.78125 Z M 53.644531 184.214844 C 55.035156 182.824219 57.3125 182.824219 58.707031 184.214844 L 62.136719 187.648438 L 69.5625 195.078125 L 74.457031 199.972656 C 75.847656 201.363281 75.847656 203.644531 74.457031 205.035156 C 73.058594 206.429688 70.785156 206.429688 69.394531 205.035156 L 64.5 200.140625 L 57.078125 192.710938 L 53.644531 189.28125 C 52.253906 187.886719 52.253906 185.605469 53.644531 184.214844 Z M 53.644531 184.214844 " fill-opacity="1" fill-rule="evenodd"/></g><g fill="#ffffff" fill-opacity="1"><g transform="translate(95.350713, 193.3678)"><g><path d="M 1.875 0 L 1.875 -19.375 L 5.421875 -19.375 L 5.421875 -2.765625 L 14.015625 -2.765625 L 14.015625 0 Z M 1.875 0 "/></g></g></g><g fill="#ffffff" fill-opacity="1"><g transform="translate(114.894773, 193.3678)"><g><path d="M 8.46875 0.328125 C 7.082031 0.328125 5.851562 0.0351562 4.78125 -0.546875 C 3.71875 -1.140625 2.878906 -1.972656 2.265625 -3.046875 C 1.660156 -4.117188 1.359375 -5.351562 1.359375 -6.75 C 1.359375 -8.175781 1.65625 -9.441406 2.25 -10.546875 C 2.851562 -11.648438 3.6875 -12.507812 4.75 -13.125 C 5.8125 -13.75 7.0625 -14.0625 8.5 -14.0625 C 9.84375 -14.0625 11.03125 -13.765625 12.0625 -13.171875 C 13.101562 -12.585938 13.910156 -11.78125 14.484375 -10.75 C 15.066406 -9.726562 15.359375 -8.59375 15.359375 -7.34375 C 15.359375 -7.132812 15.351562 -6.921875 15.34375 -6.703125 C 15.34375 -6.484375 15.332031 -6.253906 15.3125 -6.015625 L 4.875 -6.015625 C 4.945312 -4.941406 5.316406 -4.097656 5.984375 -3.484375 C 6.660156 -2.878906 7.476562 -2.578125 8.4375 -2.578125 C 9.164062 -2.578125 9.769531 -2.738281 10.25 -3.0625 C 10.738281 -3.382812 11.109375 -3.800781 11.359375 -4.3125 L 14.953125 -4.3125 C 14.691406 -3.445312 14.257812 -2.660156 13.65625 -1.953125 C 13.0625 -1.242188 12.328125 -0.6875 11.453125 -0.28125 C 10.578125 0.125 9.582031 0.328125 8.46875 0.328125 Z M 8.5 -11.1875 C 7.632812 -11.1875 6.867188 -10.941406 6.203125 -10.453125 C 5.535156 -9.960938 5.109375 -9.21875 4.921875 -8.21875 L 11.765625 -8.21875 C 11.710938 -9.125 11.378906 -9.84375 10.765625 -10.375 C 10.160156 -10.914062 9.40625 -11.1875 8.5 -11.1875 Z M 8.5 -11.1875 "/></g></g></g><g fill="#ffffff" fill-opacity="1"><g transform="translate(135.739774, 193.3678)"><g><path d="M 7.609375 -4.09375 C 6.953125 -4.09375 6.335938 -4.164062 5.765625 -4.3125 L 4.734375 -3.296875 C 5.046875 -3.128906 5.46875 -2.988281 6 -2.875 C 6.539062 -2.769531 7.410156 -2.660156 8.609375 -2.546875 C 10.441406 -2.378906 11.769531 -1.941406 12.59375 -1.234375 C 13.425781 -0.535156 13.84375 0.425781 13.84375 1.65625 C 13.84375 2.46875 13.617188 3.238281 13.171875 3.96875 C 12.734375 4.695312 12.050781 5.285156 11.125 5.734375 C 10.207031 6.191406 9.03125 6.421875 7.59375 6.421875 C 5.632812 6.421875 4.050781 6.054688 2.84375 5.328125 C 1.644531 4.597656 1.046875 3.503906 1.046875 2.046875 C 1.046875 0.804688 1.648438 -0.257812 2.859375 -1.15625 C 2.484375 -1.320312 2.160156 -1.5 1.890625 -1.6875 C 1.628906 -1.875 1.394531 -2.066406 1.1875 -2.265625 L 1.1875 -2.90625 L 3.59375 -5.453125 C 2.53125 -6.390625 2 -7.597656 2 -9.078125 C 2 -10.003906 2.222656 -10.84375 2.671875 -11.59375 C 3.117188 -12.351562 3.757812 -12.953125 4.59375 -13.390625 C 5.425781 -13.835938 6.429688 -14.0625 7.609375 -14.0625 C 8.390625 -14.0625 9.113281 -13.953125 9.78125 -13.734375 L 14.984375 -13.734375 L 14.984375 -11.578125 L 12.625 -11.40625 C 12.988281 -10.707031 13.171875 -9.929688 13.171875 -9.078125 C 13.171875 -8.160156 12.945312 -7.320312 12.5 -6.5625 C 12.0625 -5.800781 11.421875 -5.195312 10.578125 -4.75 C 9.742188 -4.3125 8.753906 -4.09375 7.609375 -4.09375 Z M 7.609375 -6.8125 C 8.328125 -6.8125 8.921875 -7.003906 9.390625 -7.390625 C 9.867188 -7.773438 10.109375 -8.328125 10.109375 -9.046875 C 10.109375 -9.773438 9.867188 -10.332031 9.390625 -10.71875 C 8.921875 -11.101562 8.328125 -11.296875 7.609375 -11.296875 C 6.859375 -11.296875 6.25 -11.101562 5.78125 -10.71875 C 5.320312 -10.332031 5.09375 -9.773438 5.09375 -9.046875 C 5.09375 -8.328125 5.320312 -7.773438 5.78125 -7.390625 C 6.25 -7.003906 6.859375 -6.8125 7.609375 -6.8125 Z M 4.296875 1.6875 C 4.296875 2.375 4.613281 2.882812 5.25 3.21875 C 5.882812 3.5625 6.664062 3.734375 7.59375 3.734375 C 8.476562 3.734375 9.195312 3.550781 9.75 3.1875 C 10.300781 2.832031 10.578125 2.351562 10.578125 1.75 C 10.578125 1.25 10.394531 0.832031 10.03125 0.5 C 9.675781 0.164062 8.960938 -0.0351562 7.890625 -0.109375 C 7.128906 -0.160156 6.425781 -0.242188 5.78125 -0.359375 C 5.25 -0.0664062 4.867188 0.253906 4.640625 0.609375 C 4.410156 0.960938 4.296875 1.320312 4.296875 1.6875 Z M 4.296875 1.6875 "/></g></g></g><g fill="#ffffff" fill-opacity="1"><g transform="translate(155.782065, 193.3678)"><g><path d="M 6.53125 0.328125 C 5.351562 0.328125 4.382812 0.140625 3.625 -0.234375 C 2.863281 -0.609375 2.300781 -1.109375 1.9375 -1.734375 C 1.570312 -2.367188 1.390625 -3.066406 1.390625 -3.828125 C 1.390625 -5.097656 1.882812 -6.128906 2.875 -6.921875 C 3.875 -7.710938 5.367188 -8.109375 7.359375 -8.109375 L 10.859375 -8.109375 L 10.859375 -8.4375 C 10.859375 -9.382812 10.585938 -10.078125 10.046875 -10.515625 C 9.515625 -10.960938 8.851562 -11.1875 8.0625 -11.1875 C 7.34375 -11.1875 6.710938 -11.015625 6.171875 -10.671875 C 5.640625 -10.328125 5.304688 -9.828125 5.171875 -9.171875 L 1.71875 -9.171875 C 1.8125 -10.160156 2.144531 -11.023438 2.71875 -11.765625 C 3.300781 -12.503906 4.054688 -13.070312 4.984375 -13.46875 C 5.910156 -13.863281 6.941406 -14.0625 8.078125 -14.0625 C 10.035156 -14.0625 11.578125 -13.570312 12.703125 -12.59375 C 13.828125 -11.613281 14.390625 -10.226562 14.390625 -8.4375 L 14.390625 0 L 11.375 0 L 11.046875 -2.21875 C 10.640625 -1.476562 10.070312 -0.867188 9.34375 -0.390625 C 8.613281 0.0859375 7.675781 0.328125 6.53125 0.328125 Z M 7.34375 -2.4375 C 8.351562 -2.4375 9.140625 -2.769531 9.703125 -3.4375 C 10.265625 -4.101562 10.617188 -4.921875 10.765625 -5.890625 L 7.75 -5.890625 C 6.8125 -5.890625 6.140625 -5.71875 5.734375 -5.375 C 5.328125 -5.039062 5.125 -4.625 5.125 -4.125 C 5.125 -3.59375 5.328125 -3.175781 5.734375 -2.875 C 6.140625 -2.582031 6.675781 -2.4375 7.34375 -2.4375 Z M 7.34375 -2.4375 "/></g></g></g><g fill="#ffffff" fill-opacity="1"><g transform="translate(176.045797, 193.3678)"><g><path d="M 8.53125 0.328125 C 7.125 0.328125 5.882812 0.0234375 4.8125 -0.578125 C 3.75 -1.191406 2.90625 -2.039062 2.28125 -3.125 C 1.664062 -4.21875 1.359375 -5.460938 1.359375 -6.859375 C 1.359375 -8.265625 1.664062 -9.507812 2.28125 -10.59375 C 2.90625 -11.6875 3.75 -12.535156 4.8125 -13.140625 C 5.882812 -13.753906 7.125 -14.0625 8.53125 -14.0625 C 10.28125 -14.0625 11.753906 -13.601562 12.953125 -12.6875 C 14.148438 -11.78125 14.914062 -10.523438 15.25 -8.921875 L 11.515625 -8.921875 C 11.328125 -9.578125 10.960938 -10.09375 10.421875 -10.46875 C 9.878906 -10.851562 9.238281 -11.046875 8.5 -11.046875 C 7.519531 -11.046875 6.6875 -10.675781 6 -9.9375 C 5.320312 -9.195312 4.984375 -8.171875 4.984375 -6.859375 C 4.984375 -5.554688 5.320312 -4.535156 6 -3.796875 C 6.6875 -3.054688 7.519531 -2.6875 8.5 -2.6875 C 9.238281 -2.6875 9.878906 -2.867188 10.421875 -3.234375 C 10.960938 -3.609375 11.328125 -4.132812 11.515625 -4.8125 L 15.25 -4.8125 C 14.914062 -3.257812 14.148438 -2.015625 12.953125 -1.078125 C 11.753906 -0.140625 10.28125 0.328125 8.53125 0.328125 Z M 8.53125 0.328125 "/></g></g></g><g fill="#ffffff" fill-opacity="1"><g transform="translate(196.94617, 193.3678)"><g><path d="M 3.515625 6.09375 L 6.703125 -0.90625 L 5.875 -0.90625 L 0.53125 -13.734375 L 4.375 -13.734375 L 8.21875 -4.0625 L 12.234375 -13.734375 L 16 -13.734375 L 7.28125 6.09375 Z M 3.515625 6.09375 "/></g></g></g><g fill="#ffffff" fill-opacity="1"><g transform="translate(217.763486, 193.3678)"><g><path d="M 7.46875 0.328125 C 6.25 0.328125 5.175781 0.128906 4.25 -0.265625 C 3.332031 -0.660156 2.597656 -1.207031 2.046875 -1.90625 C 1.492188 -2.613281 1.160156 -3.425781 1.046875 -4.34375 L 4.625 -4.34375 C 4.738281 -3.8125 5.035156 -3.351562 5.515625 -2.96875 C 6.003906 -2.59375 6.640625 -2.40625 7.421875 -2.40625 C 8.191406 -2.40625 8.753906 -2.5625 9.109375 -2.875 C 9.472656 -3.1875 9.65625 -3.546875 9.65625 -3.953125 C 9.65625 -4.546875 9.394531 -4.945312 8.875 -5.15625 C 8.363281 -5.375 7.648438 -5.582031 6.734375 -5.78125 C 6.140625 -5.914062 5.535156 -6.070312 4.921875 -6.25 C 4.316406 -6.4375 3.757812 -6.671875 3.25 -6.953125 C 2.738281 -7.242188 2.328125 -7.613281 2.015625 -8.0625 C 1.703125 -8.519531 1.546875 -9.082031 1.546875 -9.75 C 1.546875 -10.96875 2.03125 -11.988281 3 -12.8125 C 3.96875 -13.644531 5.332031 -14.0625 7.09375 -14.0625 C 8.71875 -14.0625 10.015625 -13.679688 10.984375 -12.921875 C 11.953125 -12.171875 12.523438 -11.128906 12.703125 -9.796875 L 9.359375 -9.796875 C 9.148438 -10.816406 8.382812 -11.328125 7.0625 -11.328125 C 6.394531 -11.328125 5.878906 -11.195312 5.515625 -10.9375 C 5.160156 -10.675781 4.984375 -10.351562 4.984375 -9.96875 C 4.984375 -9.5625 5.25 -9.238281 5.78125 -9 C 6.320312 -8.757812 7.035156 -8.535156 7.921875 -8.328125 C 8.878906 -8.109375 9.757812 -7.863281 10.5625 -7.59375 C 11.363281 -7.332031 12.003906 -6.9375 12.484375 -6.40625 C 12.960938 -5.882812 13.203125 -5.132812 13.203125 -4.15625 C 13.222656 -3.300781 13 -2.53125 12.53125 -1.84375 C 12.070312 -1.164062 11.410156 -0.632812 10.546875 -0.25 C 9.679688 0.132812 8.65625 0.328125 7.46875 0.328125 Z M 7.46875 0.328125 "/></g></g></g><g fill="#ffffff" fill-opacity="1"><g transform="translate(236.587872, 193.3678)"><g><path d="M 8.5 0.328125 C 7.082031 0.328125 5.828125 0.0820312 4.734375 -0.40625 C 3.640625 -0.894531 2.78125 -1.59375 2.15625 -2.5 C 1.53125 -3.414062 1.207031 -4.53125 1.1875 -5.84375 L 4.921875 -5.84375 C 4.960938 -4.9375 5.289062 -4.171875 5.90625 -3.546875 C 6.53125 -2.929688 7.382812 -2.625 8.46875 -2.625 C 9.414062 -2.625 10.164062 -2.847656 10.71875 -3.296875 C 11.269531 -3.753906 11.546875 -4.363281 11.546875 -5.125 C 11.546875 -5.914062 11.300781 -6.53125 10.8125 -6.96875 C 10.320312 -7.414062 9.671875 -7.773438 8.859375 -8.046875 C 8.046875 -8.328125 7.175781 -8.625 6.25 -8.9375 C 4.757812 -9.457031 3.617188 -10.125 2.828125 -10.9375 C 2.046875 -11.75 1.65625 -12.828125 1.65625 -14.171875 C 1.644531 -15.316406 1.921875 -16.300781 2.484375 -17.125 C 3.046875 -17.945312 3.8125 -18.582031 4.78125 -19.03125 C 5.757812 -19.488281 6.890625 -19.71875 8.171875 -19.71875 C 9.460938 -19.71875 10.597656 -19.484375 11.578125 -19.015625 C 12.566406 -18.554688 13.34375 -17.910156 13.90625 -17.078125 C 14.46875 -16.253906 14.769531 -15.269531 14.8125 -14.125 L 11.015625 -14.125 C 10.992188 -14.800781 10.726562 -15.398438 10.21875 -15.921875 C 9.71875 -16.453125 9.015625 -16.71875 8.109375 -16.71875 C 7.335938 -16.738281 6.6875 -16.550781 6.15625 -16.15625 C 5.632812 -15.757812 5.375 -15.179688 5.375 -14.421875 C 5.375 -13.773438 5.578125 -13.265625 5.984375 -12.890625 C 6.390625 -12.515625 6.941406 -12.195312 7.640625 -11.9375 C 8.335938 -11.675781 9.140625 -11.398438 10.046875 -11.109375 C 11.003906 -10.773438 11.878906 -10.382812 12.671875 -9.9375 C 13.472656 -9.5 14.113281 -8.914062 14.59375 -8.1875 C 15.070312 -7.457031 15.3125 -6.519531 15.3125 -5.375 C 15.3125 -4.351562 15.050781 -3.410156 14.53125 -2.546875 C 14.019531 -1.679688 13.253906 -0.984375 12.234375 -0.453125 C 11.222656 0.0664062 9.976562 0.328125 8.5 0.328125 Z M 8.5 0.328125 "/></g></g></g><g fill="#ffffff" fill-opacity="1"><g transform="translate(257.405188, 193.3678)"><g><path d="M 7.921875 0 C 6.484375 0 5.328125 -0.347656 4.453125 -1.046875 C 3.585938 -1.753906 3.15625 -3.003906 3.15625 -4.796875 L 3.15625 -10.765625 L 0.796875 -10.765625 L 0.796875 -13.734375 L 3.15625 -13.734375 L 3.578125 -17.421875 L 6.703125 -17.421875 L 6.703125 -13.734375 L 10.40625 -13.734375 L 10.40625 -10.765625 L 6.703125 -10.765625 L 6.703125 -4.765625 C 6.703125 -4.097656 6.84375 -3.640625 7.125 -3.390625 C 7.414062 -3.140625 7.910156 -3.015625 8.609375 -3.015625 L 10.328125 -3.015625 L 10.328125 0 Z M 7.921875 0 "/></g></g></g><g fill="#ffffff" fill-opacity="1"><g transform="translate(273.350881, 193.3678)"><g><path d="M 6.953125 0.328125 C 5.234375 0.328125 3.90625 -0.203125 2.96875 -1.265625 C 2.039062 -2.335938 1.578125 -3.910156 1.578125 -5.984375 L 1.578125 -13.734375 L 5.09375 -13.734375 L 5.09375 -6.3125 C 5.09375 -5.132812 5.332031 -4.226562 5.8125 -3.59375 C 6.289062 -2.96875 7.046875 -2.65625 8.078125 -2.65625 C 9.054688 -2.65625 9.863281 -3.003906 10.5 -3.703125 C 11.144531 -4.410156 11.46875 -5.390625 11.46875 -6.640625 L 11.46875 -13.734375 L 15 -13.734375 L 15 0 L 11.875 0 L 11.59375 -2.328125 C 11.175781 -1.515625 10.566406 -0.867188 9.765625 -0.390625 C 8.960938 0.0859375 8.023438 0.328125 6.953125 0.328125 Z M 6.953125 0.328125 "/></g></g></g><g fill="#ffffff" fill-opacity="1"><g transform="translate(294.472679, 193.3678)"><g><path d="M 8.109375 0.328125 C 6.816406 0.328125 5.660156 0.015625 4.640625 -0.609375 C 3.628906 -1.234375 2.828125 -2.085938 2.234375 -3.171875 C 1.648438 -4.265625 1.359375 -5.503906 1.359375 -6.890625 C 1.359375 -8.273438 1.648438 -9.503906 2.234375 -10.578125 C 2.828125 -11.660156 3.628906 -12.507812 4.640625 -13.125 C 5.660156 -13.75 6.816406 -14.0625 8.109375 -14.0625 C 9.140625 -14.0625 10.039062 -13.867188 10.8125 -13.484375 C 11.59375 -13.097656 12.222656 -12.550781 12.703125 -11.84375 L 12.703125 -19.9375 L 16.25 -19.9375 L 16.25 0 L 13.09375 0 L 12.703125 -1.96875 C 12.265625 -1.351562 11.679688 -0.816406 10.953125 -0.359375 C 10.222656 0.0976562 9.273438 0.328125 8.109375 0.328125 Z M 8.859375 -2.765625 C 10.003906 -2.765625 10.941406 -3.144531 11.671875 -3.90625 C 12.398438 -4.675781 12.765625 -5.660156 12.765625 -6.859375 C 12.765625 -8.066406 12.398438 -9.050781 11.671875 -9.8125 C 10.941406 -10.582031 10.003906 -10.96875 8.859375 -10.96875 C 7.734375 -10.96875 6.800781 -10.585938 6.0625 -9.828125 C 5.320312 -9.066406 4.953125 -8.085938 4.953125 -6.890625 C 4.953125 -5.691406 5.320312 -4.703125 6.0625 -3.921875 C 6.800781 -3.148438 7.734375 -2.765625 8.859375 -2.765625 Z M 8.859375 -2.765625 "/></g></g></g><g fill="#ffffff" fill-opacity="1"><g transform="translate(316.812391, 193.3678)"><g><path d="M 3.703125 -15.859375 C 3.054688 -15.859375 2.523438 -16.050781 2.109375 -16.4375 C 1.703125 -16.832031 1.5 -17.320312 1.5 -17.90625 C 1.5 -18.5 1.703125 -18.984375 2.109375 -19.359375 C 2.523438 -19.742188 3.054688 -19.9375 3.703125 -19.9375 C 4.347656 -19.9375 4.878906 -19.742188 5.296875 -19.359375 C 5.710938 -18.984375 5.921875 -18.5 5.921875 -17.90625 C 5.921875 -17.320312 5.710938 -16.832031 5.296875 -16.4375 C 4.878906 -16.050781 4.347656 -15.859375 3.703125 -15.859375 Z M 1.9375 0 L 1.9375 -13.734375 L 5.484375 -13.734375 L 5.484375 0 Z M 1.9375 0 "/></g></g></g><g fill="#ffffff" fill-opacity="1"><g transform="translate(328.495435, 193.3678)"><g><path d="M 8.390625 0.328125 C 7.054688 0.328125 5.859375 0.0234375 4.796875 -0.578125 C 3.742188 -1.191406 2.90625 -2.035156 2.28125 -3.109375 C 1.664062 -4.191406 1.359375 -5.441406 1.359375 -6.859375 C 1.359375 -8.285156 1.671875 -9.535156 2.296875 -10.609375 C 2.921875 -11.691406 3.765625 -12.535156 4.828125 -13.140625 C 5.890625 -13.753906 7.085938 -14.0625 8.421875 -14.0625 C 9.734375 -14.0625 10.914062 -13.753906 11.96875 -13.140625 C 13.03125 -12.535156 13.867188 -11.691406 14.484375 -10.609375 C 15.109375 -9.535156 15.421875 -8.285156 15.421875 -6.859375 C 15.421875 -5.441406 15.109375 -4.191406 14.484375 -3.109375 C 13.867188 -2.035156 13.023438 -1.191406 11.953125 -0.578125 C 10.890625 0.0234375 9.703125 0.328125 8.390625 0.328125 Z M 8.390625 -2.734375 C 9.316406 -2.734375 10.117188 -3.078125 10.796875 -3.765625 C 11.484375 -4.460938 11.828125 -5.492188 11.828125 -6.859375 C 11.828125 -8.234375 11.484375 -9.265625 10.796875 -9.953125 C 10.117188 -10.640625 9.328125 -10.984375 8.421875 -10.984375 C 7.472656 -10.984375 6.660156 -10.640625 5.984375 -9.953125 C 5.316406 -9.265625 4.984375 -8.234375 4.984375 -6.859375 C 4.984375 -5.492188 5.316406 -4.460938 5.984375 -3.765625 C 6.660156 -3.078125 7.460938 -2.734375 8.390625 -2.734375 Z M 8.390625 -2.734375 "/></g></g></g></svg>